<svg xmlns="http://www.w3.org/2000/svg" xmlns:xlink="http://www.w3.org/1999/xlink" width="500" zoomAndPan="magnify" viewBox="0 0 375 374.999991" height="500" preserveAspectRatio="xMidYMid meet" version="1.0"><defs><clipPath id="id1"><path d="M 0 22.03125 L 375 22.03125 L 375 352.78125 L 0 352.78125 Z M 0 22.03125 " clip-rule="nonzero"/></clipPath></defs><g clip-path="url(#id1)"><path fill="rgb(9.01947%, 49.409485%, 95.289612%)" d="M 350.390625 171.308594 L 347.996094 171.308594 C 341.390625 87.886719 271.96875 22.03125 187.5 22.03125 C 103.035156 22.03125 33.609375 87.886719 27.003906 171.308594 L 24.609375 171.308594 C 11.054688 171.308594 0.0664062 181.792969 0.0664062 194.722656 L 0.0664062 241.554688 C 0.0664062 254.488281 11.054688 264.972656 24.609375 264.972656 L 64.496094 264.972656 L 64.496094 171.308594 L 38.765625 171.308594 C 45.335938 94.355469 109.496094 33.738281 187.5 33.738281 C 265.503906 33.738281 329.664062 94.355469 336.234375 171.308594 L 310.503906 171.308594 L 310.503906 264.972656 L 332.332031 264.972656 C 328.058594 279.203125 314.042969 311.800781 272.925781 326.335938 C 269.871094 321.148438 264.242188 317.65625 257.789062 317.65625 C 248.082031 317.65625 240.214844 325.519531 240.214844 335.21875 C 240.214844 344.917969 248.082031 352.78125 257.789062 352.78125 C 266.570312 352.78125 273.828125 346.332031 275.128906 337.921875 C 325.074219 320.996094 340.507812 279.269531 344.414062 264.972656 L 350.390625 264.972656 C 363.945312 264.972656 374.933594 254.488281 374.933594 241.554688 L 374.933594 194.722656 C 374.933594 181.792969 363.945312 171.308594 350.390625 171.308594 Z M 350.390625 171.308594 " fill-opacity="1" fill-rule="nonzero"/></g><path fill="rgb(9.01947%, 49.409485%, 95.289612%)" d="M 259.398438 280.050781 C 264.367188 274.996094 269.378906 269.886719 274.394531 264.757812 C 280.4375 258.652344 280.957031 250.265625 275.703125 243.402344 L 268.097656 233.40625 C 269.644531 230.214844 271.015625 226.878906 272.167969 223.472656 C 276.421875 222.863281 280.691406 222.242188 284.953125 221.613281 C 293.121094 220.414062 298.605469 214.085938 298.605469 205.863281 L 298.605469 183.574219 C 298.605469 175.359375 293.105469 169.03125 284.921875 167.832031 L 272.152344 165.964844 C 270.851562 162.074219 269.226562 158.203125 267.3125 154.445312 L 274.75 144.257812 C 279.882812 137.296875 279.160156 128.910156 272.910156 122.894531 C 267.84375 117.90625 262.691406 112.863281 257.523438 107.8125 C 251.566406 102.007812 242.839844 101.496094 236.242188 106.546875 C 236.242188 106.546875 229.308594 111.796875 226.207031 114.164062 C 222.949219 112.589844 219.609375 111.234375 216.269531 110.117188 C 215.75 106.492188 214.398438 97.390625 214.398438 97.390625 C 213.226562 89.1875 206.871094 83.679688 198.585938 83.679688 L 176.414062 83.679688 C 168.179688 83.679688 161.824219 89.128906 160.597656 97.246094 C 160.597656 97.246094 159.078125 107.664062 158.734375 110.117188 C 154.789062 111.441406 150.910156 113.066406 147.191406 114.949219 C 143.957031 112.578125 140.5625 110.105469 136.921875 107.46875 C 130.308594 102.675781 121.710938 103.316406 115.929688 109.070312 C 112.359375 112.664062 100.589844 124.691406 100.589844 124.691406 C 94.566406 130.8125 94.058594 139.195312 99.292969 146.046875 C 99.292969 146.046875 105.492188 154.199219 106.898438 156.042969 C 105.332031 159.28125 103.964844 162.613281 102.835938 165.960938 L 90.054688 167.832031 C 81.886719 169.019531 76.394531 175.398438 76.394531 183.710938 L 76.394531 205.738281 C 76.394531 214.070312 81.917969 220.453125 90.136719 221.621094 L 102.835938 223.472656 C 104.15625 227.382812 105.785156 231.257812 107.6875 234.988281 C 106.007812 237.273438 100.246094 245.191406 100.246094 245.191406 C 95.082031 252.191406 95.757812 260.351562 102.011719 266.488281 C 105.859375 270.273438 117.480469 281.636719 117.480469 281.636719 C 121.632812 285.636719 125.914062 286.476562 128.773438 286.476562 C 132.324219 286.476562 135.703125 285.261719 138.796875 282.863281 L 148.792969 275.277344 C 152.019531 276.84375 155.359375 278.207031 158.734375 279.328125 C 159.152344 282.285156 160.585938 292.023438 160.585938 292.023438 C 161.808594 300.242188 168.171875 305.765625 176.414062 305.765625 L 198.589844 305.765625 C 206.8125 305.765625 213.164062 300.316406 214.394531 292.199219 C 215.027344 287.890625 215.652344 283.609375 216.269531 279.328125 C 220.148438 278.027344 224.019531 276.40625 227.800781 274.496094 C 227.800781 274.496094 237.910156 281.882812 237.917969 281.886719 C 244.792969 286.914062 253.492188 286.167969 259.398438 280.050781 Z M 187.5 242.542969 C 161.113281 242.542969 139.648438 221.089844 139.648438 194.722656 C 139.648438 168.355469 161.113281 146.90625 187.5 146.90625 C 213.890625 146.90625 235.355469 168.355469 235.355469 194.722656 C 235.355469 221.089844 213.890625 242.542969 187.5 242.542969 Z M 187.5 242.542969 " fill-opacity="1" fill-rule="nonzero"/><path fill="rgb(9.01947%, 49.409485%, 95.289612%)" d="M 187.5 160.667969 C 168.714844 160.667969 153.425781 175.945312 153.425781 194.722656 C 153.425781 213.503906 168.714844 228.777344 187.5 228.777344 C 206.292969 228.777344 221.585938 213.503906 221.585938 194.722656 C 221.585938 175.945312 206.292969 160.667969 187.5 160.667969 Z M 187.5 160.667969 " fill-opacity="1" fill-rule="nonzero"/></svg>