<svg xmlns="http://www.w3.org/2000/svg" xmlns:xlink="http://www.w3.org/1999/xlink" width="500" zoomAndPan="magnify" viewBox="0 0 375 106.499997" height="142" preserveAspectRatio="xMidYMid meet" version="1.0"><defs><g><g id="id1"/></g><clipPath id="id2"><path d="M 1.621094 0 L 121.0625 0 L 121.0625 106.003906 L 1.621094 106.003906 Z M 1.621094 0 " clip-rule="nonzero"/></clipPath></defs><g fill="rgb(0%, 0%, 0%)" fill-opacity="1"><g transform="translate(132.525733, 67.274692)"><g><path d="M 12.078125 -15.390625 L 1.625 -30.0625 L 6.796875 -30.0625 L 14.734375 -18.546875 L 22.640625 -30.0625 L 27.765625 -30.0625 L 17.3125 -15.390625 L 28.3125 0 L 23.15625 0 L 14.734375 -12.1875 L 6.234375 0 L 1.0625 0 Z M 12.078125 -15.390625 "/></g></g></g><g fill="rgb(0%, 0%, 0%)" fill-opacity="1"><g transform="translate(161.961951, 67.274692)"><g><path d="M 28.15625 -10.671875 C 28.15625 -7.140625 26.875 -4.382812 24.3125 -2.40625 C 21.75 -0.4375 18.269531 0.546875 13.875 0.546875 C 9.125 0.546875 5.46875 -0.0664062 2.90625 -1.296875 L 2.90625 -5.78125 C 4.550781 -5.09375 6.34375 -4.546875 8.28125 -4.140625 C 10.21875 -3.742188 12.140625 -3.546875 14.046875 -3.546875 C 17.148438 -3.546875 19.488281 -4.132812 21.0625 -5.3125 C 22.644531 -6.488281 23.4375 -8.128906 23.4375 -10.234375 C 23.4375 -11.617188 23.15625 -12.753906 22.59375 -13.640625 C 22.03125 -14.535156 21.09375 -15.359375 19.78125 -16.109375 C 18.476562 -16.859375 16.492188 -17.707031 13.828125 -18.65625 C 10.097656 -19.988281 7.429688 -21.566406 5.828125 -23.390625 C 4.222656 -25.222656 3.421875 -27.613281 3.421875 -30.5625 C 3.421875 -33.65625 4.582031 -36.113281 6.90625 -37.9375 C 9.226562 -39.769531 12.300781 -40.6875 16.125 -40.6875 C 20.113281 -40.6875 23.785156 -39.953125 27.140625 -38.484375 L 25.671875 -34.4375 C 22.367188 -35.820312 19.148438 -36.515625 16.015625 -36.515625 C 13.546875 -36.515625 11.613281 -35.984375 10.21875 -34.921875 C 8.832031 -33.859375 8.140625 -32.390625 8.140625 -30.515625 C 8.140625 -29.117188 8.394531 -27.976562 8.90625 -27.09375 C 9.425781 -26.207031 10.289062 -25.394531 11.5 -24.65625 C 12.71875 -23.914062 14.582031 -23.09375 17.09375 -22.1875 C 21.300781 -20.695312 24.195312 -19.085938 25.78125 -17.359375 C 27.363281 -15.640625 28.15625 -13.410156 28.15625 -10.671875 Z M 28.15625 -10.671875 "/></g></g></g><g fill="rgb(0%, 0%, 0%)" fill-opacity="1"><g transform="translate(192.797275, 67.274692)"><g><path d="M 9.109375 -30.0625 L 9.109375 -10.5625 C 9.109375 -8.113281 9.664062 -6.285156 10.78125 -5.078125 C 11.894531 -3.867188 13.640625 -3.265625 16.015625 -3.265625 C 19.160156 -3.265625 21.460938 -4.125 22.921875 -5.84375 C 24.378906 -7.5625 25.109375 -10.367188 25.109375 -14.265625 L 25.109375 -30.0625 L 29.65625 -30.0625 L 29.65625 0 L 25.90625 0 L 25.234375 -4.03125 L 25 -4.03125 C 24.0625 -2.550781 22.765625 -1.414062 21.109375 -0.625 C 19.453125 0.15625 17.566406 0.546875 15.453125 0.546875 C 11.785156 0.546875 9.039062 -0.316406 7.21875 -2.046875 C 5.40625 -3.785156 4.5 -6.566406 4.5 -10.390625 L 4.5 -30.0625 Z M 9.109375 -30.0625 "/></g></g></g><g fill="rgb(0%, 0%, 0%)" fill-opacity="1"><g transform="translate(227.281268, 67.274692)"><g><path d="M 18.828125 0.546875 C 16.867188 0.546875 15.078125 0.1875 13.453125 -0.53125 C 11.835938 -1.257812 10.484375 -2.375 9.390625 -3.875 L 9.046875 -3.875 C 9.273438 -2.113281 9.390625 -0.445312 9.390625 1.125 L 9.390625 13.5 L 4.828125 13.5 L 4.828125 -30.0625 L 8.53125 -30.0625 L 9.15625 -25.953125 L 9.390625 -25.953125 C 10.554688 -27.597656 11.914062 -28.785156 13.46875 -29.515625 C 15.019531 -30.253906 16.804688 -30.625 18.828125 -30.625 C 22.804688 -30.625 25.878906 -29.257812 28.046875 -26.53125 C 30.210938 -23.800781 31.296875 -19.976562 31.296875 -15.0625 C 31.296875 -10.125 30.191406 -6.285156 27.984375 -3.546875 C 25.785156 -0.816406 22.734375 0.546875 18.828125 0.546875 Z M 18.15625 -26.75 C 15.082031 -26.75 12.859375 -25.894531 11.484375 -24.1875 C 10.117188 -22.488281 9.421875 -19.785156 9.390625 -16.078125 L 9.390625 -15.0625 C 9.390625 -10.832031 10.09375 -7.804688 11.5 -5.984375 C 12.90625 -4.171875 15.160156 -3.265625 18.265625 -3.265625 C 20.867188 -3.265625 22.90625 -4.316406 24.375 -6.421875 C 25.84375 -8.523438 26.578125 -11.421875 26.578125 -15.109375 C 26.578125 -18.859375 25.84375 -21.734375 24.375 -23.734375 C 22.90625 -25.742188 20.832031 -26.75 18.15625 -26.75 Z M 18.15625 -26.75 "/></g></g></g><g fill="rgb(0%, 0%, 0%)" fill-opacity="1"><g transform="translate(261.710395, 67.274692)"><g><path d="M 18.828125 0.546875 C 16.867188 0.546875 15.078125 0.1875 13.453125 -0.53125 C 11.835938 -1.257812 10.484375 -2.375 9.390625 -3.875 L 9.046875 -3.875 C 9.273438 -2.113281 9.390625 -0.445312 9.390625 1.125 L 9.390625 13.5 L 4.828125 13.5 L 4.828125 -30.0625 L 8.53125 -30.0625 L 9.15625 -25.953125 L 9.390625 -25.953125 C 10.554688 -27.597656 11.914062 -28.785156 13.46875 -29.515625 C 15.019531 -30.253906 16.804688 -30.625 18.828125 -30.625 C 22.804688 -30.625 25.878906 -29.257812 28.046875 -26.53125 C 30.210938 -23.800781 31.296875 -19.976562 31.296875 -15.0625 C 31.296875 -10.125 30.191406 -6.285156 27.984375 -3.546875 C 25.785156 -0.816406 22.734375 0.546875 18.828125 0.546875 Z M 18.15625 -26.75 C 15.082031 -26.75 12.859375 -25.894531 11.484375 -24.1875 C 10.117188 -22.488281 9.421875 -19.785156 9.390625 -16.078125 L 9.390625 -15.0625 C 9.390625 -10.832031 10.09375 -7.804688 11.5 -5.984375 C 12.90625 -4.171875 15.160156 -3.265625 18.265625 -3.265625 C 20.867188 -3.265625 22.90625 -4.316406 24.375 -6.421875 C 25.84375 -8.523438 26.578125 -11.421875 26.578125 -15.109375 C 26.578125 -18.859375 25.84375 -21.734375 24.375 -23.734375 C 22.90625 -25.742188 20.832031 -26.75 18.15625 -26.75 Z M 18.15625 -26.75 "/></g></g></g><g fill="rgb(0%, 0%, 0%)" fill-opacity="1"><g transform="translate(296.139521, 67.274692)"><g><path d="M 30.78125 -15.0625 C 30.78125 -10.15625 29.546875 -6.328125 27.078125 -3.578125 C 24.609375 -0.828125 21.195312 0.546875 16.84375 0.546875 C 14.15625 0.546875 11.769531 -0.0820312 9.6875 -1.34375 C 7.601562 -2.601562 5.992188 -4.410156 4.859375 -6.765625 C 3.722656 -9.128906 3.15625 -11.894531 3.15625 -15.0625 C 3.15625 -19.96875 4.378906 -23.785156 6.828125 -26.515625 C 9.273438 -29.253906 12.675781 -30.625 17.03125 -30.625 C 21.238281 -30.625 24.582031 -29.222656 27.0625 -26.421875 C 29.539062 -23.617188 30.78125 -19.832031 30.78125 -15.0625 Z M 7.875 -15.0625 C 7.875 -11.21875 8.640625 -8.289062 10.171875 -6.28125 C 11.710938 -4.269531 13.972656 -3.265625 16.953125 -3.265625 C 19.929688 -3.265625 22.191406 -4.265625 23.734375 -6.265625 C 25.285156 -8.265625 26.0625 -11.195312 26.0625 -15.0625 C 26.0625 -18.882812 25.285156 -21.785156 23.734375 -23.765625 C 22.191406 -25.753906 19.914062 -26.75 16.90625 -26.75 C 13.914062 -26.75 11.660156 -25.769531 10.140625 -23.8125 C 8.628906 -21.851562 7.875 -18.9375 7.875 -15.0625 Z M 7.875 -15.0625 "/></g></g></g><g fill="rgb(0%, 0%, 0%)" fill-opacity="1"><g transform="translate(330.074844, 67.274692)"><g><path d="M 18.546875 -30.625 C 19.878906 -30.625 21.078125 -30.507812 22.140625 -30.28125 L 21.515625 -26.0625 C 20.265625 -26.332031 19.164062 -26.46875 18.21875 -26.46875 C 15.78125 -26.46875 13.695312 -25.476562 11.96875 -23.5 C 10.25 -21.53125 9.390625 -19.070312 9.390625 -16.125 L 9.390625 0 L 4.828125 0 L 4.828125 -30.0625 L 8.59375 -30.0625 L 9.109375 -24.5 L 9.328125 -24.5 C 10.441406 -26.457031 11.785156 -27.96875 13.359375 -29.03125 C 14.929688 -30.09375 16.660156 -30.625 18.546875 -30.625 Z M 18.546875 -30.625 "/></g></g></g><g fill="rgb(0%, 0%, 0%)" fill-opacity="1"><g transform="translate(353.009314, 67.274692)"><g><path d="M 14.546875 -3.203125 C 15.347656 -3.203125 16.125 -3.257812 16.875 -3.375 C 17.625 -3.5 18.21875 -3.628906 18.65625 -3.765625 L 18.65625 -0.28125 C 18.164062 -0.0390625 17.4375 0.15625 16.46875 0.3125 C 15.507812 0.46875 14.644531 0.546875 13.875 0.546875 C 8.0625 0.546875 5.15625 -2.515625 5.15625 -8.640625 L 5.15625 -26.53125 L 0.84375 -26.53125 L 0.84375 -28.71875 L 5.15625 -30.625 L 7.078125 -37.03125 L 9.71875 -37.03125 L 9.71875 -30.0625 L 18.4375 -30.0625 L 18.4375 -26.53125 L 9.71875 -26.53125 L 9.71875 -8.828125 C 9.71875 -7.023438 10.144531 -5.632812 11 -4.65625 C 11.863281 -3.6875 13.046875 -3.203125 14.546875 -3.203125 Z M 14.546875 -3.203125 "/></g></g></g><g clip-path="url(#id2)"><path fill="rgb(9.01947%, 49.409485%, 95.289612%)" d="M 113.222656 47.839844 L 112.460938 47.839844 C 110.355469 21.105469 88.246094 0 61.34375 0 C 34.441406 0 12.328125 21.105469 10.222656 47.839844 L 9.460938 47.839844 C 5.144531 47.839844 1.644531 51.203125 1.644531 55.347656 L 1.644531 70.355469 C 1.644531 74.5 5.144531 77.859375 9.460938 77.859375 L 22.164062 77.859375 L 22.164062 47.839844 L 13.96875 47.839844 C 16.0625 23.179688 36.496094 3.753906 61.34375 3.753906 C 86.1875 3.753906 106.621094 23.179688 108.714844 47.839844 L 100.519531 47.839844 L 100.519531 77.859375 L 107.472656 77.859375 C 106.109375 82.421875 101.648438 92.867188 88.550781 97.527344 C 87.578125 95.863281 85.785156 94.746094 83.730469 94.746094 C 80.636719 94.746094 78.132812 97.265625 78.132812 100.375 C 78.132812 103.480469 80.636719 106.003906 83.730469 106.003906 C 86.527344 106.003906 88.835938 103.9375 89.253906 101.238281 C 105.160156 95.816406 110.074219 82.441406 111.320312 77.859375 L 113.222656 77.859375 C 117.539062 77.859375 121.039062 74.5 121.039062 70.355469 L 121.039062 55.347656 C 121.039062 51.203125 117.539062 47.839844 113.222656 47.839844 Z M 113.222656 47.839844 " fill-opacity="1" fill-rule="nonzero"/></g><path fill="rgb(9.01947%, 49.409485%, 95.289612%)" d="M 84.242188 82.695312 C 85.824219 81.074219 87.421875 79.4375 89.019531 77.792969 C 90.945312 75.835938 91.109375 73.148438 89.433594 70.949219 L 87.011719 67.742188 C 87.503906 66.722656 87.941406 65.652344 88.308594 64.558594 C 89.664062 64.363281 91.023438 64.164062 92.382812 63.964844 C 94.984375 63.582031 96.730469 61.550781 96.730469 58.917969 L 96.730469 51.773438 C 96.730469 49.140625 94.976562 47.113281 92.371094 46.726562 L 88.304688 46.128906 C 87.890625 44.882812 87.371094 43.640625 86.761719 42.4375 L 89.132812 39.171875 C 90.765625 36.941406 90.535156 34.253906 88.546875 32.324219 C 86.933594 30.726562 85.292969 29.109375 83.644531 27.492188 C 81.746094 25.632812 78.96875 25.46875 76.867188 27.085938 C 76.867188 27.085938 74.660156 28.769531 73.671875 29.527344 C 72.632812 29.023438 71.570312 28.589844 70.503906 28.230469 C 70.339844 27.070312 69.910156 24.152344 69.910156 24.152344 C 69.535156 21.523438 67.511719 19.757812 64.875 19.757812 L 57.8125 19.757812 C 55.1875 19.757812 53.164062 21.503906 52.773438 24.105469 C 52.773438 24.105469 52.289062 27.445312 52.179688 28.230469 C 50.925781 28.65625 49.6875 29.175781 48.503906 29.777344 C 47.472656 29.019531 46.390625 28.226562 45.234375 27.382812 C 43.125 25.84375 40.386719 26.050781 38.546875 27.894531 C 37.410156 29.046875 33.660156 32.902344 33.660156 32.902344 C 31.742188 34.863281 31.582031 37.550781 33.25 39.746094 C 33.25 39.746094 35.222656 42.359375 35.671875 42.949219 C 35.171875 43.988281 34.738281 45.054688 34.375 46.128906 L 30.304688 46.726562 C 27.703125 47.109375 25.953125 49.152344 25.953125 51.816406 L 25.953125 58.875 C 25.953125 61.546875 27.714844 63.59375 30.332031 63.964844 L 34.375 64.558594 C 34.796875 65.8125 35.316406 67.054688 35.921875 68.25 C 35.386719 68.984375 33.550781 71.519531 33.550781 71.519531 C 31.90625 73.765625 32.121094 76.378906 34.113281 78.347656 C 35.339844 79.558594 39.039062 83.199219 39.039062 83.199219 C 40.363281 84.484375 41.726562 84.753906 42.636719 84.753906 C 43.769531 84.753906 44.84375 84.363281 45.832031 83.59375 L 49.015625 81.164062 C 50.042969 81.664062 51.105469 82.101562 52.179688 82.460938 C 52.3125 83.410156 52.769531 86.53125 52.769531 86.53125 C 53.160156 89.164062 55.1875 90.933594 57.8125 90.933594 L 64.875 90.933594 C 67.492188 90.933594 69.515625 89.1875 69.90625 86.585938 C 70.109375 85.207031 70.308594 83.832031 70.503906 82.460938 C 71.742188 82.042969 72.972656 81.523438 74.179688 80.914062 C 74.179688 80.914062 77.398438 83.28125 77.398438 83.28125 C 79.589844 84.890625 82.359375 84.652344 84.242188 82.695312 Z M 61.34375 70.671875 C 52.9375 70.671875 46.101562 63.796875 46.101562 55.347656 C 46.101562 46.894531 52.9375 40.019531 61.34375 40.019531 C 69.746094 40.019531 76.585938 46.894531 76.585938 55.347656 C 76.585938 63.796875 69.746094 70.671875 61.34375 70.671875 Z M 61.34375 70.671875 " fill-opacity="1" fill-rule="nonzero"/><path fill="rgb(9.01947%, 49.409485%, 95.289612%)" d="M 61.34375 44.433594 C 55.359375 44.433594 50.488281 49.328125 50.488281 55.347656 C 50.488281 61.363281 55.359375 66.257812 61.34375 66.257812 C 67.328125 66.257812 72.199219 61.363281 72.199219 55.347656 C 72.199219 49.328125 67.328125 44.433594 61.34375 44.433594 Z M 61.34375 44.433594 " fill-opacity="1" fill-rule="nonzero"/></svg>